<?xml version="1.0"?>

<svg version="1.1" id="Vrstva_1" xmlns="http://www.w3.org/2000/svg" xmlns:xlink="http://www.w3.org/1999/xlink" x="0px" y="0px" viewBox="0 0 180 180" style="enable-background:new 0 0 180 180;" xml:space="preserve">

<circle class="st0" cx="90" cy="90" r="90"></circle>
<path class="st1" d="M128.4,134.5l-17.5-33.9c10.5-5.2,17.8-16.1,17.8-28.6c0-17.6-14.3-32-32-32H57.3c-0.3,0-0.5,0.1-0.8,0.1&#xA;&#x9;c-0.7,0.3-1.1,0.9-1.2,1.7c0,0,0,0.1,0,0.1v93.4c0,1.1,0.9,1.9,1.9,1.9h0.3h11.6h0.2c1.1,0,1.9-0.9,1.9-1.9V104h14.3h1.8&#xA;&#x9;c4.8,0,8.9,2.8,10.8,6.9l13.1,25.3c0,0,0,0,0,0l0,0.1c0.3,0.6,1,1.1,1.7,1.1h13.6c1.1,0,1.9-0.9,1.9-1.9&#xA;&#x9;C128.6,135.1,128.5,134.8,128.4,134.5L128.4,134.5z M96.7,88H71.4V56h25.3c8.8,0,16,7.2,16,16C112.7,80.8,105.5,88,96.7,88"></path>
</svg>